<svg xmlns="http://www.w3.org/2000/svg" viewBox="0 0 131.45 106.77"><defs><style>.af961459-0ef0-4dfe-ad85-eb35a1bd963b{fill:#ececec;}.b63affe0-37b3-4cc8-aac7-2b08aa5f2f6d{fill:#fbc39d;}.ab4d39e3-604d-4a4e-950e-bb13b79f4e13{fill:#f9ac7f;}.a18be1ec-515a-4d60-80d0-7407dad9ed53{fill:#1d1d1b;}.a1eee164-895a-4635-970c-d5dde02673a1{fill:#e6e6e6;}.af30532a-9f47-4bcf-9612-045cbaf6621f{fill:#111110;}.bb24b2b6-3779-4854-97d8-819e3aa374af{fill:#262626;}.a6d55b2f-8cdd-4a91-9fa7-0ad7df6946b6{fill:#323232;}.a04b0f30-3852-42f9-902f-57c16cad2a12,.fe35ef20-7fa3-4ecc-83a5-9cc420cb8796{fill:#dbdbdb;}.fea6e49f-d822-4bc9-a399-227e13b2fa07{fill:#141414;}.a04b0f30-3852-42f9-902f-57c16cad2a12{font-size:8px;font-family:Poppins-BoldItalic, Poppins;font-weight:700;font-style:italic;}</style></defs><g id="a505f464-5bac-4ef0-b21a-7feb22c2dcec" data-name="OBJECTS"><path class="af961459-0ef0-4dfe-ad85-eb35a1bd963b" d="M38,96.9,21.71,116a6.17,6.17,0,0,0,.52,8.54h0a6.16,6.16,0,0,0,6.85,1c8.28-4,27.29-13.26,26.91-13.89l-8-13.8A6.16,6.16,0,0,0,38,96.9Z" transform="translate(-9.28 -21.62)"/><path class="b63affe0-37b3-4cc8-aac7-2b08aa5f2f6d" d="M67.26,114.92,30.24,127a6.45,6.45,0,0,1-8.14-4.13h0a6.46,6.46,0,0,1,4.14-8.15l37-12.08a6.46,6.46,0,0,1,8.14,4.14h0A6.46,6.46,0,0,1,67.26,114.92Z" transform="translate(-9.28 -21.62)"/><path class="af961459-0ef0-4dfe-ad85-eb35a1bd963b" d="M105.42,96.9l16.26,19a6.16,6.16,0,0,1-.51,8.54h0a6.16,6.16,0,0,1-6.85,1c-8.28-4-27.3-13.26-26.92-13.89s4.56-7.85,8-13.8A6.16,6.16,0,0,1,105.42,96.9Z" transform="translate(-9.28 -21.62)"/><path class="b63affe0-37b3-4cc8-aac7-2b08aa5f2f6d" d="M76.13,114.92l37,12.07a6.46,6.46,0,0,0,8.15-4.13h0a6.47,6.47,0,0,0-4.14-8.15l-37-12.08A6.46,6.46,0,0,0,72,106.77h0A6.46,6.46,0,0,0,76.13,114.92Z" transform="translate(-9.28 -21.62)"/><path class="af961459-0ef0-4dfe-ad85-eb35a1bd963b" d="M96.58,99.88l-47.11-1v-6c0-9.9,10.06-19.12,20-19.12h7.43c8.78,0,19.73,9.29,19.73,18.08Z" transform="translate(-9.28 -21.62)"/><path class="b63affe0-37b3-4cc8-aac7-2b08aa5f2f6d" d="M76.35,62.59H69.42a2.54,2.54,0,0,0-2.53,2.54V76a6,6,0,1,0,12,0V65.13A2.54,2.54,0,0,0,76.35,62.59Z" transform="translate(-9.28 -21.62)"/><path class="ab4d39e3-604d-4a4e-950e-bb13b79f4e13" d="M66.89,73.75s.49,3.53,6,3.53,6-3.53,6-3.53Z" transform="translate(-9.28 -21.62)"/><path class="ab4d39e3-604d-4a4e-950e-bb13b79f4e13" d="M56,45.35A4.66,4.66,0,1,0,60.48,50,4.58,4.58,0,0,0,56,45.35Z" transform="translate(-9.28 -21.62)"/><path class="ab4d39e3-604d-4a4e-950e-bb13b79f4e13" d="M89.84,45.35A4.66,4.66,0,1,0,94.32,50,4.58,4.58,0,0,0,89.84,45.35Z" transform="translate(-9.28 -21.62)"/><path class="b63affe0-37b3-4cc8-aac7-2b08aa5f2f6d" d="M71.51,74.93l0,0c.46,0,.93.07,1.41.07h0A16.58,16.58,0,0,0,77,74.5l0,0a17.46,17.46,0,0,0,12.74-17V36.86c0-9.7-7.57-8.16-16.89-8.16h0c-9.33,0-16.9-1.54-16.9,8.16V57.43C56,66.65,62.82,74.2,71.51,74.93Z" transform="translate(-9.28 -21.62)"/><path class="a18be1ec-515a-4d60-80d0-7407dad9ed53" d="M86.37,50.67v5.55h-6s-1.48-4-7.49-4-7.5,4-7.5,4h-6V50.67c0-2.19-2-2.91-3.41-3.15v9.91c0,9.22,6.83,16.77,15.52,17.5l0,0c.46,0,.93.07,1.41.07s.94,0,1.4-.07l0,0c8.69-.73,15.52-8.28,15.52-17.5V47.52C88.42,47.76,86.37,48.48,86.37,50.67Z" transform="translate(-9.28 -21.62)"/><path d="M80.68,45.35a1.19,1.19,0,1,1-1.18-1.23A1.21,1.21,0,0,1,80.68,45.35Z" transform="translate(-9.28 -21.62)"/><rect x="67.88" y="19.81" width="5.03" height="1.97" rx="0.75"/><path class="a1eee164-895a-4635-970c-d5dde02673a1" d="M66.69,59.11H78.38a6.28,6.28,0,0,1-11.69,0Z" transform="translate(-9.28 -21.62)"/><path class="af30532a-9f47-4bcf-9612-045cbaf6621f" d="M74.26,71.71l0,0c-.46,0-.93.06-1.4.06s-1,0-1.41-.06l0,0C62.82,71,56,63.42,56,54.21v3.22c0,9.22,6.83,16.77,15.52,17.5l0,0c.46,0,.93.07,1.41.07s.94,0,1.4-.07l0,0c8.69-.73,15.52-8.28,15.52-17.5V54.21C89.78,63.42,83,71,74.26,71.71Z" transform="translate(-9.28 -21.62)"/><path d="M66.79,45.35a1.19,1.19,0,1,1-1.19-1.23A1.21,1.21,0,0,1,66.79,45.35Z" transform="translate(-9.28 -21.62)"/><rect x="53.99" y="19.81" width="5.03" height="1.97" rx="0.75"/><path class="a18be1ec-515a-4d60-80d0-7407dad9ed53" d="M85.32,21.94c-4.63-.65-11.82-.72-17.08,3.6a3.37,3.37,0,0,0-.33.32H63.75c-4.28,0-7.76,3-7.76,6.77V55.91a1.47,1.47,0,0,0,1.44-1.49v-15s.26-4.77,4.58-4.77H83.14a5,5,0,0,1,5.21,4.71V54.42a1.46,1.46,0,0,0,1.43,1.49V33.07l.06-5.87A5.27,5.27,0,0,0,85.32,21.94Z" transform="translate(-9.28 -21.62)"/><path class="ab4d39e3-604d-4a4e-950e-bb13b79f4e13" d="M74.52,49.23h-4a1.49,1.49,0,1,0,0,3h4a1.49,1.49,0,1,0,0-3Z" transform="translate(-9.28 -21.62)"/><rect class="bb24b2b6-3779-4854-97d8-819e3aa374af" x="22.02" y="100.22" width="82.3" height="5.64" rx="2.14"/><rect class="a6d55b2f-8cdd-4a91-9fa7-0ad7df6946b6" x="29.59" y="63.77" width="68.05" height="42.08" rx="9.17"/><path class="fe35ef20-7fa3-4ecc-83a5-9cc420cb8796" d="M72.45,111.6a5.17,5.17,0,1,1,5.16-5.17A5.18,5.18,0,0,1,72.45,111.6Zm0-9.43a4.27,4.27,0,1,0,4.26,4.26A4.27,4.27,0,0,0,72.45,102.17Z" transform="translate(-9.28 -21.62)"/><path class="fea6e49f-d822-4bc9-a399-227e13b2fa07" d="M139.81,128.38H10.19a.91.91,0,0,1,0-1.82H139.81a.91.91,0,0,1,0,1.82Z" transform="translate(-9.28 -21.62)"/><text class="a04b0f30-3852-42f9-902f-57c16cad2a12" transform="translate(46.66 101.54)">Alvabits</text></g></svg>